<svg xmlns="http://www.w3.org/2000/svg" xmlns:xlink="http://www.w3.org/1999/xlink" viewBox="0 0 797 228">
    <defs>
        <style>
            .cls-2{fill:#0d4456;opacity:.5}.cls-12{fill:#0c80b9}.cls-13{fill:#399c46}.cls-15{fill:#30783b}
        </style>
        <radialGradient id="radial-gradient" cx="112.4" cy="67.04" r="2.66" gradientUnits="userSpaceOnUse">
            <stop offset="0" stop-color="#0c80b9"/>
            <stop offset="1" stop-color="#10536d"/>
        </radialGradient>
        <linearGradient id="New_Gradient_Swatch" x1="797.87" y1="209.77" x2="75.87" y2="111.77" gradientUnits="userSpaceOnUse">
            <stop offset="0" stop-color="#5aba47"/>
            <stop offset=".33" stop-color="#726658"/>
            <stop offset=".66" stop-color="#396bad"/>
            <stop offset="1" stop-color="#00a8dc"/>
        </linearGradient>
        <linearGradient id="New_Gradient_Swatch-2" x1="799.95" y1="194.45" x2="77.95" y2="96.45" xlink:href="#New_Gradient_Swatch"/>
        <linearGradient id="New_Gradient_Swatch-3" x1="802.84" y1="173.2" x2="80.84" y2="75.2" xlink:href="#New_Gradient_Swatch"/>
        <linearGradient id="New_Gradient_Swatch-4" x1="801.98" y1="179.48" x2="79.99" y2="81.48" xlink:href="#New_Gradient_Swatch"/>
        <linearGradient id="New_Gradient_Swatch-5" x1="803.39" y1="169.14" x2="81.39" y2="71.14" xlink:href="#New_Gradient_Swatch"/>
        <linearGradient id="New_Gradient_Swatch-6" x1="804.69" y1="159.55" x2="82.68" y2="61.55" xlink:href="#New_Gradient_Swatch"/>
        <linearGradient id="New_Gradient_Swatch-7" x1="796.3" y1="221.38" x2="74.29" y2="123.38" xlink:href="#New_Gradient_Swatch"/>
        <linearGradient id="New_Gradient_Swatch-8" x1="796.15" y1="222.44" x2="74.15" y2="124.44" xlink:href="#New_Gradient_Swatch"/>
        <radialGradient id="radial-gradient-2" cx="104.59" cy="169.63" r="119.19" xlink:href="#radial-gradient"/>
        <radialGradient id="radial-gradient-4" cx="101.54" cy="160.8" r="105.6" xlink:href="#radial-gradient"/>
    </defs>
    <path d="M382.52 109.66c-9.47 0-16.73 3-22.41 9.23-4.65-6.11-11.9-9.51-20.68-9.51a26.42 26.42 0 0 0-15.3 4.48l-.51-3.37h-23.1v76.44h24.9v-40.57c0-6.55 3.62-13.18 10.55-13.18 7.38 0 10 7.1 10 13.18v40.57h24.9v-40.57c0-6.41 3.72-12.9 10.82-12.9 7.73 0 8.88 7.91 8.88 12.62v40.85h24.9v-40.85c0-11.35-2.75-20.27-8.18-26.52-5.71-6.56-14.04-9.9-24.77-9.9zm79.38-1.11c-11.84 0-22 3.89-29.3 11.26-7.09 7.13-11 17.25-11 28.48 0 24.56 16.31 40.43 41.54 40.43 12.58 0 24.94-4.72 32.25-12.31l2.74-2.85-2.81-2.78-10.81-10.67-1.34-1.33H500l.34-3.63c1.4-14.94-1.78-27.14-9.19-35.27-6.73-7.4-16.86-11.33-29.25-11.33zm16.93 51.65c-2.74 2.84-9.66 5.15-15.41 5.15-7 0-12.25-2.42-14.81-6.55h31.57zm30.58-78.11h-4v104.84h24.76V82.09h-20.76zm64.83 26.46c-11.84 0-22 3.89-29.3 11.26-7.09 7.13-11 17.25-11 28.48 0 24.56 16.31 40.43 41.54 40.43 12.58 0 24.94-4.72 32.25-12.31l2.74-2.85-2.81-2.78-10.81-10.67-1.34-1.33h16.86l.34-3.63c1.4-14.94-1.78-27.14-9.19-35.27-6.75-7.4-16.88-11.33-29.28-11.33zm16.93 51.65c-2.74 2.84-9.66 5.15-15.41 5.15-7 0-12.25-2.42-14.81-6.55h31.57zm62.73-50.95c-22.79 0-39.33 16.66-39.33 39.6 0 10.84 3.73 20.76 10.51 27.93 7.23 7.64 17.24 11.68 29 11.68s21.75-4 29-11.67c6.83-7.18 10.59-17.1 10.59-27.94A39.87 39.87 0 0 0 682.81 121c-7.27-7.6-17.53-11.75-28.91-11.75zm.14 55.69c-6.72 0-14.56-4.21-14.56-16.09 0-7.81 4.56-16.23 14.56-16.23 9.12 0 14.56 8.25 14.56 16.23 0 11.87-7.85 16.09-14.6 16.09zM763 119.53a31.36 31.36 0 0 0-23.45-10 32.17 32.17 0 0 0-19.35 6.4l-.23-1.91-.42-3.53h-22.69v76.44h24.76V148c0-8.62 5.78-15.12 13.46-15.12 11.59 0 12.49 10.94 12.49 14.29v39.74h24.9V147c-.01-11.18-3.29-20.7-9.47-27.47zm-488.95-8.9h-3.77l-.22 3.76v.18a31.81 31.81 0 0 0-18.3-5.61h-.33c-11.16 0-20.77 3.52-27.81 10.19a34 34 0 0 0-5.1 6.12c-3.45 2.27-7 4.76-10.56 7.38a33.35 33.35 0 0 0-5.96-12.37c-5.55-7-13.76-10.62-24.41-10.62a30 30 0 0 0-17.33 4.95V87.47h1.37c5.49 0 8.23-2.5 9.41-4a9.55 9.55 0 0 0 2.96-5.72V77a14.85 14.85 0 0 0-.41-4.4c-2.49-10.58-15.2-23.93-22.69-31.05a13.06 13.06 0 0 0-4.34-4c-4.63-4.09-23.6-20.27-34-20.27a7.4 7.4 0 0 0-5.79 2.39l-1.73 2 1.09 2.33a49.6 49.6 0 0 1 2.75 7.63h-2.63c-8 0-36.07 1.45-59.09 20.07a73.77 73.77 0 0 0-21.38 28.43c-5.39 12.51-8 27-7.61 43v.33c3.71 35.42 22.2 56.4 44.92 67 15.47 8.18 31.14 12.33 46.75 12.33a92.43 92.43 0 0 0 12.3-.84l1.66-.23.5-.07c16.9-2.5 31.34-9.2 42.94-16.08 6-3.47 11.85-7.27 17.45-11.18v12.49h24.9v-31.13l2.74-2.12c.89 10.27 4.6 18.86 10.89 25 6.9 6.78 16.5 10.36 27.75 10.36h.36a34 34 0 0 0 18.94-6.29v.55l.31 3.67h23.61v-76.3h-20.14zM135.4 86v92.6c-3.21 1.21-6.46 2.3-9.78 3.24-14-.89-23.37-8.54-29.2-15.95a6.28 6.28 0 0 0 .48-1.48 5.15 5.15 0 0 0-.9-4.21 5.14 5.14 0 0 0 4.1-3.83 5.92 5.92 0 0 0 .19-3.05 5.66 5.66 0 0 0 .16-1c.2-2.63-1-5.51-3.76-6-.32-.08-1.29-.37-1.95-.57-.89-.26-1.66-.49-2.08-.6a4.61 4.61 0 0 0-1.15-.14c-1.83 0-3.35 1-4.81 2l-.15.1a76.57 76.57 0 0 1-4-24.24 60.19 60.19 0 0 1 2.14-16.39 4.81 4.81 0 0 0 2.15 1.64c.42.16 1.18.41 2.06.7.65.22 1.63.54 1.93.66a4.26 4.26 0 0 0 1.72.36c2.46 0 4.51-2.16 5.25-4.06a6.11 6.11 0 0 0 1.84-3.57 4.87 4.87 0 0 0-1.39-4.53 5.66 5.66 0 0 0 3.7-5 4.72 4.72 0 0 0-1.87-4.26l5.69-1.11 1.92-.33a157.17 157.17 0 0 1 22.84-1.48c1.61 0 3.24 0 4.88.06zm49.32 64c-7.81 5.7-15.92 11.34-24.42 16.39V148c0-8.38 5.55-14.7 12.9-14.7 7.75 0 11.52 4.49 11.52 13.73z" fill="#fff"/>
    <path class="cls-2" d="M81.93 70.82l-.2-.2.35.46a2.83 2.83 0 0 1-.15-.26z"/>
    <path d="M112.29 65.3l.16-.63z" fill="url(#radial-gradient)"/>
    <path d="M350 182.93v-36.57c0-9-4.71-17.18-14-17.18s-14.55 8.17-14.55 17.18v36.57h-16.9v-68.44h15.65l1.25 8.31c3.6-6.93 11.5-9.42 18-9.42 8.17 0 16.35 3.32 20.23 12.75 6.1-9.7 14-12.47 22.86-12.47 19.4 0 29 11.91 29 32.42v36.85h-16.9v-36.85c0-9-3.74-16.62-12.88-16.62s-14.82 7.9-14.82 16.9v36.57z" fill="url(#New_Gradient_Swatch)"/>
    <path d="M443.06 154.81c1.11 8.45 8.45 14.55 20.36 14.55 6.23 0 14.41-2.36 18.29-6.37l10.81 10.67c-7.21 7.48-19 11.08-29.37 11.08-23.55 0-37.54-14.55-37.54-36.43 0-20.78 14.13-35.74 36.3-35.74 22.86 0 37.13 14.13 34.5 42.25zm37.13-14c-1.11-8.87-8-13.3-17.73-13.3-9.14 0-16.62 4.43-19.12 13.3z" fill="url(#New_Gradient_Swatch-2)"/>
    <path d="M526.17 86.09v96.83h-16.76V86.09z" fill="url(#New_Gradient_Swatch-3)"/>
    <path d="M555.4 154.81c1.11 8.45 8.45 14.55 20.36 14.55 6.23 0 14.41-2.36 18.29-6.37l10.81 10.67c-7.21 7.48-19 11.08-29.37 11.08-23.55 0-37.54-14.55-37.54-36.43 0-20.78 14.13-35.74 36.3-35.74 22.86 0 37.13 14.13 34.5 42.25zm37.13-14c-1.11-8.87-8-13.3-17.73-13.3-9.14 0-16.62 4.43-19.12 13.3z" fill="url(#New_Gradient_Swatch-4)"/>
    <path d="M689.64 148.85c0 19.67-13.44 35.6-35.6 35.6s-35.46-15.93-35.46-35.6 13.58-35.6 35.33-35.6 35.73 16.07 35.73 35.6zm-54.17 0c0 10.39 6.23 20.09 18.56 20.09s18.56-9.7 18.56-20.09-7.19-20.23-18.59-20.23c-12.16 0-18.53 9.98-18.53 20.23z" fill="url(#New_Gradient_Swatch-5)"/>
    <path d="M751.56 182.93v-35.74c0-10.39-5.68-18.29-16.49-18.29-10.39 0-17.46 8.73-17.46 19.12v34.91h-16.75v-68.44H716l1.11 9.28c6.93-6.79 13.85-10.25 22.44-10.25 16.07 0 29 12.05 29 33.53v35.88z" fill="url(#New_Gradient_Swatch-6)"/>
    <path d="M274.05 114.63h16.21v68.3h-15.93l-.83-10c-3.88 8-14.55 11.91-22.17 12.05-20.23.14-35.19-12.33-35.19-36.3 0-23.55 15.65-35.88 35.6-35.74 9.14 0 17.87 4.29 21.75 11.08zm-41 34.08c0 13 9 20.78 20.23 20.78 26.6 0 26.6-41.42 0-41.42-11.28 0-20.28 7.62-20.28 20.64z" fill="url(#New_Gradient_Swatch-7)"/>
    <path d="M156.3 86v38c6.1-7.9 13.58-10.25 21.33-10.25 19.4 0 28 13.16 28 33.25v36h-16.9v-36c0-12.47-6.51-17.73-15.52-17.73-10 0-16.9 8.45-16.9 18.7v34.91H139.4V86z" fill="url(#New_Gradient_Swatch-8)"/>
    <path class="cls-12" d="M148.53 186.93H135.4v-4.14s-8.93 2.94-5.42 1.84c-5.51.63-8.49.75-8.49.75C107.76 183.3 97.33 175 90.19 164a18.49 18.49 0 0 0 1.69.79c.86.42 1.55-2 .79-2.25s-3.26-.64-3.06-2 .46-2.66.46-2.66a6.41 6.41 0 0 1 2.14-2.7 18.71 18.71 0 0 1 3.08 1c.75.22 1.48-1.94.91-2.34a31.65 31.65 0 0 0-4-1.41 12.6 12.6 0 0 1-2.18.85 21.61 21.61 0 0 1 2.15-1.41s3 .61 3.83.8.47-2.41-.08-2.49c-.36-.05-3.43-1-4.26-1.22s-2.91 1.55-3.86 2a8 8 0 0 0-1.31 4.38l-1.06-.18c-9.08-20.16-9.13-45.42-.25-60l.44-.07-.3-.09c1.44.73 2.39 1.17 2.39 1.17a8 8 0 0 0-1.45 4.34c.5.95 1.2 3.59 2 3.89s3.86 1.28 4.19 1.44c.5.25 2.24-1.69 1.49-2s-3.59-1.55-3.59-1.55a21.4 21.4 0 0 1-.95-2.39 12.71 12.71 0 0 1 1.3 1.94 31.46 31.46 0 0 0 4.09 1.16c.7 0 1.35-2.19.6-2.44a18.7 18.7 0 0 1-3.09-.95 6.42 6.42 0 0 1-.2-3.44s.55-1.25 1.15-2.44 2.84 0 3.64.15 1.6-2.14.65-2.29c-.6-.15-4.44-.95-5.33 0s-2.09 2.14-2.09 2.14-1.17-.6-2.78-1.63a22 22 0 0 1 18.06-8.83s21.4-4.19 55.29.2c5.27.35 7.08-2.13 7.44-2.73 1.91-1.69 2.34-4.22 1.62-7.29-1.85-7.85-11.12-19.25-21.89-29.4a9 9 0 0 0-3.6-3.29c-12.17-10.84-25.38-19.5-31.64-19.54h-.07a3.53 3.53 0 0 0-2.76 1A54.87 54.87 0 0 1 114.13 37a85.76 85.76 0 0 0-11.13-.76h-2.05l-2 .05a80.54 80.54 0 0 0-47.2 142.58c.58.41 1.14.78 1.72 1.17.92.61 1.83 1.2 2.74 1.78l-.17-.1.35.21.32.21.2.12c39.92 25.28 76.63 16.59 100.93 4.62h-9.3zm-2.61-135a5.85 5.85 0 1 1-5.84-5.93 5.85 5.85 0 0 1 5.84 5.88zm63.7 94.98v3.78q3.38-2.62 6.63-5.06a37.25 37.25 0 0 1 5.17-17.46c-4.07 2.66-8.25 5.62-12.56 8.78a62 62 0 0 1 .76 9.96zm-49.32 35.36v3.41a151.21 151.21 0 0 0 24.42-16v-14.82a291.27 291.27 0 0 1-24.42 16.06zm112.54-8.14c-.58-.42-15.42-3-23.75-12.62-4.45-5.9-4.73-10.44-4.73-11.53a11.76 11.76 0 0 1 .74-5 11.51 11.51 0 0 1 2.83-4.26 8.8 8.8 0 0 1 1-.84 7.89 7.89 0 0 1 1.06-.73l.55-.34s.15-.07-.09 0h.09l.18-.08.36-.17.35-.16.24-.08c.16-.05.3-.12.48-.17a9.37 9.37 0 0 1 2.33-.35 9.25 9.25 0 0 1 2.34.32 8.92 8.92 0 0 1 5.34 4.19 6.22 6.22 0 0 1 .47 1 5.94 5.94 0 0 1 .27 1 6.53 6.53 0 0 1-.51 4 6.71 6.71 0 0 1-2.56 2.87l-.2.13h-.05s-.14.06.1 0l-.13.05-.52.21-.51.21-.36.06a4.61 4.61 0 0 1-1.59.08 5.13 5.13 0 0 1-4.25-3.59l-.11-.52v-.56a2 2 0 0 1 .06-.53 2.57 2.57 0 0 1 .11-.49 4.14 4.14 0 0 1 .82-1.44c.92-1 .3-1.6-.77-.76a5.22 5.22 0 0 0-1.65 4.72 3.64 3.64 0 0 0 .18.79l.11.37v.1l.05.1.11.2.45.83a9.62 9.62 0 0 0 .62.77 7.08 7.08 0 0 0 3.76 2.23 6.42 6.42 0 0 0 1.21.17 4.94 4.94 0 0 0 1.35 0l.71-.1.53-.16.54-.16h.14l.16-.07h.08l.3-.14a9.54 9.54 0 0 0 4.11-3.77 10 10 0 0 0 1.36-6 9.76 9.76 0 0 0-.32-1.69l-.13-.45-.12-.34-.12-.32-.06-.16-.13-.27a13.13 13.13 0 0 0-7.41-6.95 14.15 14.15 0 0 0-3.61-.81 14.47 14.47 0 0 0-3.81.23c-.33.06-.68.17-1 .26l-.52.15-.37.14-.37.13-.19.07h-.09l-.18.08-.84.41a13.08 13.08 0 0 0-1.64.94 14.6 14.6 0 0 0-1.55 1.12 17 17 0 0 0-4.77 6.13 18.28 18.28 0 0 0-1.71 7.81v1.29c0 .12 0 .51.08.83v.6c0 .16 0 .33.07.5l.05.32q.05.33.12.69l.05.27q.07.33.14.67l.06.27q.1.44.22.89v.09c.09.35.2.7.31 1.06l.06.2q.14.44.31.89l.11.29q.17.45.36.91l.09.23c.16.38.34.76.53 1.14l.08.16q.24.48.51 1l.2.34q.24.41.5.82l.21.33c.25.37.5.74.78 1.1 8.83 11.17 23.42 14.83 24.29 15.21 6.1 2.31 9.02-5.19 6.1-6.36z"/>
    <path class="cls-13" d="M216.25 145.62a37.25 37.25 0 0 1 5.17-17.46c-4.07 2.66-8.25 5.62-12.56 8.78a62 62 0 0 1 .76 10v3.78q3.38-2.65 6.63-5.1zm-76.85 41.31h-4v-4.14c-24.46 9-52.07 10.73-83.65-3.86.58.41 1.14.78 1.72 1.17q1.62 1.08 3.23 2.1c11.87 7 44.48 21.34 91.84 4.74z"/>
    <path class="cls-12" d="M55.72 180.68l.82.35q1.91.79 3.8 1.51l.76.28q1.76.65 3.51 1.24l.48.17c1.24.41 2.47.79 3.7 1.15l.94.27q1.79.51 3.57 1l.8.19q1.53.37 3 .69l.87.18c1.13.23 2.24.43 3.36.62l1.13.18c1.08.17 2.16.33 3.23.46l1 .11q1.27.15 2.53.26l1.25.11q1.49.11 3 .18l1.42.05h6.1l1.63-.06q1.28-.06 2.54-.15l1.77-.15 1.32-.13q1.54-.16 3.07-.36l1-.14 2-.3.52-.09q1.9-.32 3.78-.71l.61-.13q5.46-1.15 10.73-2.83c-5.51.63-11.2 1-17 1.14h-1c-15.34 0-29.15-6.91-39-17.9-.28-2.64-.81-6.17-1.66-7.07 5.39-3.52 15.81-2.06 15.81-2.06s.32 1.63.48 3 3.76 2.88 4.34 3.1c.86.42 1.55-2 .79-2.25s-3.26-.64-3.06-2 .46-2.66.46-2.66a6.41 6.41 0 0 1 2.14-2.7 18.71 18.71 0 0 1 3.08 1c.75.22 1.48-1.94.91-2.34a31.65 31.65 0 0 0-4-1.41 12.6 12.6 0 0 1-2.18.85 21.61 21.61 0 0 1 2.15-1.41s3 .61 3.83.8.47-2.41-.08-2.49c-.36-.05-3.43-1-4.26-1.22s-2.91 1.55-3.86 2a8 8 0 0 0-1.31 4.38s-19.66-3.56-21.27 1.16c0 .1-.06.21-.09.31a61.63 61.63 0 0 1-7.58-29.73 60.22 60.22 0 0 1 15.16-40.31c4.38 4.44 15 9.32 15 9.32a8 8 0 0 0-1.45 4.34c.5.95 1.2 3.59 2 3.89s3.86 1.28 4.19 1.44c.5.25 2.24-1.69 1.49-2s-3.59-1.55-3.59-1.55a21.4 21.4 0 0 1-.95-2.39 12.71 12.71 0 0 1 1.3 1.94 31.46 31.46 0 0 0 4.04 1.19c.7 0 1.35-2.19.6-2.44a18.7 18.7 0 0 1-3.09-.95 6.42 6.42 0 0 1-.2-3.44s.55-1.25 1.15-2.44 2.84 0 3.64.15 1.6-2.14.65-2.29c-.6-.15-4.44-.95-5.33 0s-2.09 2.14-2.09 2.14S80.73 89 78.34 83c1.63-.33 5.53-4.92 6.89-6.58a53.87 53.87 0 0 1 26-7.83h.27c.11-.44.21-.87.28-1.27 2.37-8.29 4.1-19 2.38-30.3a85.76 85.76 0 0 0-11.16-.78h-1.27c-.9 0-1.81 0-2.77.06a80.54 80.54 0 0 0-47.2 142.58c1.32.66 2.64 1.24 3.96 1.8z"/>
    <path d="M72.76 86.82a60.22 60.22 0 0 0-15.22 40.33 61.63 61.63 0 0 0 7.58 29.73c0-.1.06-.21.09-.31 1.38-4.07 16.15-2 20.22-1.34-9.13-20.23-9.14-45.7-.11-60.23-3.38-1.74-9.49-5.07-12.56-8.18zM90.19 164c-1.19-.62-2.55-1.51-2.65-2.32-.16-1.33-.48-3-.48-3s-10.42-1.46-15.81 2.06c.85.89 1.38 4.43 1.66 7.07 9.87 11 23.68 17.9 39 17.9h1c2.89-.06 5.73-.2 8.54-.39C107.76 183.3 97.33 175 90.19 164z" fill="url(#radial-gradient-2)"/>
    <path class="cls-2" d="M71 83c1.4-4.78 10.77-12.36 10.77-12.36-1.39.27-12.65 9.66-13.42 12.23-1.58 5.29 10.13 13.69 17.31 12.29C80.88 92.75 69.86 86.75 71 83zm-5.79 73.57c1-2.85 8.54-2.68 14.37-2.1a18.6 18.6 0 0 0-3-1.22 29.07 29.07 0 0 0-10.08-1.15c-3.9.3-4.75 1-4.57 5.16.22 4.81 1.72 10.67 4.71 14.71h.06c-.76-2.85-2.82-11.48-1.49-15.4zm46.26-88.01c.11-.44.21-.87.28-1.27 2.37-8.28 4.09-19 2.39-30.25a84.41 84.41 0 0 0-15.19-.7c11.2 10.82 12.21 31 12.26 32.24z"/>
    <path class="cls-13" d="M184.72 154.86a291.27 291.27 0 0 1-24.42 16.06v11.35a196.67 196.67 0 0 0 24.42-13z"/>
    <path class="cls-15" d="M184.72 169.69v-.38a196.69 196.69 0 0 1-24.42 13v3.41a151.21 151.21 0 0 0 24.42-16.03zm-26.89 17.24h-9.32c-48.27 16.92-81.21 1.64-92.48-5.16 40.26 25.97 77.32 17.23 101.8 5.16z"/>
    <path d="M111.75 67.29c-.07.4-.17.83-.28 1.27h-.27a53.87 53.87 0 0 0-26 7.83c-1.33 1.67-5.2 6.27-6.86 6.61 1.55 3.88 6 7.24 9 9.13a22 22 0 0 1 18.06-8.83c.37-.75 5.34-10.45 6.35-16.01z" fill="url(#radial-gradient-4)"/>
    <path d="M169.73 73.48c-1.85-7.85-11.12-19.25-21.89-29.4a9 9 0 1 1-3.6-3.29c-12.17-10.84-25.38-19.5-31.64-19.54h-.07a3.53 3.53 0 0 0-2.76 1c7.47 16.27 5.37 33.14 2 45 .31-.83 4.34-15.1 12.51-4.53-3 15.15 43.93 17.88 43.93 17.88l-.08.14c1.87-1.67 2.32-4.19 1.6-7.26z" fill="#39b54a"/>
    <path class="cls-13" d="M140.08 57.73a5.85 5.85 0 1 1 5.85-5.85 5.85 5.85 0 0 1-5.85 5.85m.13-17.9a9 9 0 1 0 4 1 9 9 0 0 0-4-1m-28.46 27.46c-1 5.77-6.36 16-6.36 16s21.4-4.19 55.29.2c6 .4 7.51-2.86 7.51-2.86s-46.92-2.72-43.93-17.88c-8.17-10.56-12.2 3.71-12.51 4.54z"/>
    <path d="M265.71 165.44a18.24 18.24 0 0 1-6.72 3.34l-.29.1a69.53 69.53 0 0 0 14.13 5.28c.24-.39.46-.79.66-1.2a14.3 14.3 0 0 1-7.78-7.52zm1.12 14.79c-3.79-1.22-14.16-4.88-21.44-12.15a18.74 18.74 0 0 1-6.83-4.52c4.36 13.84 18.64 20.44 19 20.61a29.73 29.73 0 0 0 9.27-3.94z" fill="#231f20" opacity=".8"/>
    <path class="cls-13" d="M272.84 174.13c-.58-.42-15.42-3-23.75-12.62-4.45-5.9-4.73-10.44-4.73-11.53a11.76 11.76 0 0 1 .74-5 11.51 11.51 0 0 1 2.83-4.26 8.8 8.8 0 0 1 1-.84 7.89 7.89 0 0 1 1.06-.73l.55-.34s.15-.07-.09 0h.09l.18-.08.36-.17.35-.16.24-.08c.16-.05.3-.12.48-.17a9.37 9.37 0 0 1 2.33-.35 9.25 9.25 0 0 1 2.34.32 8.92 8.92 0 0 1 5.34 4.19 6.22 6.22 0 0 1 .47 1 5.94 5.94 0 0 1 .27 1 6.53 6.53 0 0 1-.51 4 6.71 6.71 0 0 1-2.56 2.87l-.2.13h-.05s-.14.06.1 0l-.13.05-.52.21-.51.21-.36.06a4.61 4.61 0 0 1-1.59.08 5.13 5.13 0 0 1-4.25-3.59l-.11-.52v-.56a2 2 0 0 1 .06-.53 2.57 2.57 0 0 1 .11-.49 4.14 4.14 0 0 1 .82-1.44c.92-1 .3-1.6-.77-.76a5.22 5.22 0 0 0-1.65 4.72 3.64 3.64 0 0 0 .18.79l.11.37v.1l.05.1.11.2.45.83a9.62 9.62 0 0 0 .62.77 7.08 7.08 0 0 0 3.76 2.23 6.42 6.42 0 0 0 1.21.17 4.94 4.94 0 0 0 1.35 0l.71-.1.53-.16.54-.16h.14l.16-.07h.08l.3-.14a9.54 9.54 0 0 0 4.11-3.77 10 10 0 0 0 1.36-6 9.76 9.76 0 0 0-.32-1.69l-.13-.45-.12-.34-.12-.32-.06-.16-.13-.27a13.13 13.13 0 0 0-7.41-6.95 14.15 14.15 0 0 0-3.61-.81 14.47 14.47 0 0 0-3.81.23c-.33.06-.68.17-1 .26l-.52.15-.37.14-.37.13-.19.07h-.09l-.18.08-.84.41a13.08 13.08 0 0 0-1.64.94 14.6 14.6 0 0 0-1.55 1.12 17 17 0 0 0-4.77 6.13 18.28 18.28 0 0 0-1.71 7.81v1.74a26.6 26.6 0 0 0 5.06 12.87c8.83 11.17 23.42 14.83 24.29 15.21 5.88 2.59 8.8-4.91 5.88-6.08z"/>
    <path class="cls-15" d="M272.84 174.13c-.58-.42-15.42-3-23.75-12.62-9.75-1.21-11.42-10.73-11.42-10.73a26.92 26.92 0 0 0 5 14.28c8.83 11.17 23.42 14.83 24.29 15.21 5.88 2.53 8.8-4.97 5.88-6.14z"/>
    <path d="M251.41 113c-19.79 0-35.27 12.32-35.27 35.74v1.65c5.61.45 11.27.87 17 1.27a26.55 26.55 0 0 1-.16-2.93c0-13 9-20.64 20.23-20.64 15.51 0 22 14.08 19.4 25.82 5.81.27 11.65.5 17.59.72v-40h-16.15l-.55 9.42c-3.88-6.79-12.61-11.08-21.75-11.08h-.33m88.01.42c-6.51 0-14.41 2.49-18 9.42l-1.25-8.31h-15.66v40.58c5.58.16 11.23.3 16.9.41v-9.13c0-9 5.4-17.18 14.55-17.18s14 8.17 14 17.18v9.51c3.93 0 16.82.05 16.9.05v-9.56c0-9 5.68-16.9 14.82-16.9s12.88 7.62 12.88 16.62v9.65q8.4-.11 16.9-.28v-9.37c0-20.5-9.56-32.42-29-32.42-8.87 0-16.76 2.77-22.86 12.47-3.88-9.42-12.05-12.75-20.23-12.75m103.95 27.44c2.49-8.87 10-13.3 19.12-13.3 9.7 0 16.62 4.43 17.73 13.3h-36.85m18.56-28.26c-22.17 0-36.3 15-36.3 35.74a47 47 0 0 0 .48 6.82q30.93-.81 63-2.46l7.55-.4c1.55-26.42-12.54-39.69-34.69-39.69m64.24-26.48h-16.76v65.42q8.43-.5 16.76-1.06V86.09m29.51 54.73c2.49-8.87 10-13.3 19.12-13.3 9.7 0 16.62 4.43 17.73 13.3h-36.85m18.56-28.26c-22.17 0-36.3 15-36.3 35.74v1.34q36.31-2.6 70.88-6.14c-1.78-20.6-15-30.95-34.6-30.95m79.68.7c-19.31 0-32.18 12.67-34.82 29.19q9-1 17.91-2c2.55-6.69 8.3-11.83 17.05-11.83a17.63 17.63 0 0 1 14.8 7.91c6-.79 12-1.6 17.9-2.43-5.17-12.26-16.93-20.86-32.84-20.86m85.61.29c-8.59 0-15.52 3.46-22.44 10.25l-1.07-9.28h-15.1v17.58q30.87-4.57 59.16-9.83a27.27 27.27 0 0 0-20.51-8.72m-561.92.14c-7.76 0-15.24 2.36-21.33 10.25V86h-16.9v55.9q7.75 1.14 15.82 2.18l1.41.18c1.48-8.46 7.86-14.91 16.58-14.91 9 0 15.52 5.26 15.52 17.73v.84q8.32.84 16.9 1.59v-2.57c-.01-20.12-8.63-33.28-28-33.28z" opacity=".25" fill="#fff"/>
</svg>
